<mxfile host="app.diagrams.net" modified="2023-11-24T20:01:55.710Z" agent="Mozilla/5.0 (Windows NT 10.0; Win64; x64; rv:120.0) Gecko/20100101 Firefox/120.0" etag="MrWZH7sDWiIYaDxtgTKk" version="22.1.3" type="device">
  <diagram id="R2lEEEUBdFMjLlhIrx00" name="Page-1">
    <mxGraphModel dx="1900" dy="1611" grid="1" gridSize="10" guides="1" tooltips="1" connect="1" arrows="1" fold="1" page="1" pageScale="1" pageWidth="850" pageHeight="1100" math="0" shadow="0" extFonts="Permanent Marker^https://fonts.googleapis.com/css?family=Permanent+Marker">
      <root>
        <mxCell id="0" />
        <mxCell id="1" parent="0" />
        <mxCell id="akXxFOU8DNpJ8hJ18WZi-14" value="Mission" style="swimlane;fontStyle=0;childLayout=stackLayout;horizontal=1;startSize=26;horizontalStack=0;resizeParent=1;resizeParentMax=0;resizeLast=0;collapsible=1;marginBottom=0;align=center;fontSize=14;" parent="1" vertex="1">
          <mxGeometry x="150" y="370" width="160" height="340" as="geometry" />
        </mxCell>
        <mxCell id="akXxFOU8DNpJ8hJ18WZi-15" value="mission_id" style="text;strokeColor=none;fillColor=none;spacingLeft=4;spacingRight=4;overflow=hidden;rotatable=0;points=[[0,0.5],[1,0.5]];portConstraint=eastwest;fontSize=12;whiteSpace=wrap;html=1;" parent="akXxFOU8DNpJ8hJ18WZi-14" vertex="1">
          <mxGeometry y="26" width="160" height="30" as="geometry" />
        </mxCell>
        <mxCell id="akXxFOU8DNpJ8hJ18WZi-16" value="&lt;div&gt;vehicle_id&lt;/div&gt;&lt;div&gt;&lt;br&gt;&lt;/div&gt;" style="text;strokeColor=none;fillColor=none;spacingLeft=4;spacingRight=4;overflow=hidden;rotatable=0;points=[[0,0.5],[1,0.5]];portConstraint=eastwest;fontSize=12;whiteSpace=wrap;html=1;" parent="akXxFOU8DNpJ8hJ18WZi-14" vertex="1">
          <mxGeometry y="56" width="160" height="30" as="geometry" />
        </mxCell>
        <mxCell id="akXxFOU8DNpJ8hJ18WZi-17" value="&lt;div&gt;driver_id&lt;/div&gt;&lt;div&gt;&lt;br&gt;&lt;/div&gt;&lt;div&gt;client_id&lt;/div&gt;&lt;div&gt;&lt;br&gt;&lt;/div&gt;&lt;div&gt;expected_start&lt;/div&gt;&lt;div&gt;&lt;br&gt;&lt;/div&gt;&lt;div&gt;expected_end&lt;br&gt;&lt;/div&gt;&lt;div&gt;&lt;br&gt;&lt;/div&gt;&lt;div&gt;location&lt;/div&gt;&lt;div&gt;&lt;br&gt;&lt;/div&gt;&lt;div&gt;actual_start&lt;/div&gt;&lt;div&gt;&lt;br&gt;&lt;/div&gt;&lt;div&gt;actual_end&lt;br&gt;&lt;/div&gt;&lt;div&gt;&lt;br&gt;&lt;/div&gt;&lt;div&gt;odometer_start&lt;/div&gt;&lt;div&gt;&lt;br&gt;&lt;/div&gt;&lt;div&gt;odometer_end&lt;br&gt;&lt;/div&gt;" style="text;strokeColor=none;fillColor=none;spacingLeft=4;spacingRight=4;overflow=hidden;rotatable=0;points=[[0,0.5],[1,0.5]];portConstraint=eastwest;fontSize=12;whiteSpace=wrap;html=1;" parent="akXxFOU8DNpJ8hJ18WZi-14" vertex="1">
          <mxGeometry y="86" width="160" height="254" as="geometry" />
        </mxCell>
        <mxCell id="akXxFOU8DNpJ8hJ18WZi-24" value="" style="edgeStyle=entityRelationEdgeStyle;fontSize=12;html=1;endArrow=ERoneToMany;rounded=0;entryX=1.019;entryY=0.071;entryDx=0;entryDy=0;entryPerimeter=0;exitX=-0.009;exitY=0.306;exitDx=0;exitDy=0;exitPerimeter=0;" parent="1" source="akXxFOU8DNpJ8hJ18WZi-26" target="akXxFOU8DNpJ8hJ18WZi-17" edge="1">
          <mxGeometry width="100" height="100" relative="1" as="geometry">
            <mxPoint x="540" y="471.0000000000001" as="sourcePoint" />
            <mxPoint x="450" y="510" as="targetPoint" />
          </mxGeometry>
        </mxCell>
        <mxCell id="akXxFOU8DNpJ8hJ18WZi-25" value="Driver" style="swimlane;fontStyle=0;childLayout=stackLayout;horizontal=1;startSize=26;horizontalStack=0;resizeParent=1;resizeParentMax=0;resizeLast=0;collapsible=1;marginBottom=0;align=center;fontSize=14;" parent="1" vertex="1">
          <mxGeometry x="520" y="440" width="160" height="110" as="geometry" />
        </mxCell>
        <mxCell id="akXxFOU8DNpJ8hJ18WZi-26" value="driver_id" style="text;strokeColor=none;fillColor=none;spacingLeft=4;spacingRight=4;overflow=hidden;rotatable=0;points=[[0,0.5],[1,0.5]];portConstraint=eastwest;fontSize=12;whiteSpace=wrap;html=1;" parent="akXxFOU8DNpJ8hJ18WZi-25" vertex="1">
          <mxGeometry y="26" width="160" height="30" as="geometry" />
        </mxCell>
        <mxCell id="akXxFOU8DNpJ8hJ18WZi-27" value="&lt;div&gt;driver_name&lt;/div&gt;&lt;div&gt;&lt;br&gt;&lt;/div&gt;&lt;div&gt;driver_licence&lt;br&gt;&lt;/div&gt;" style="text;strokeColor=none;fillColor=none;spacingLeft=4;spacingRight=4;overflow=hidden;rotatable=0;points=[[0,0.5],[1,0.5]];portConstraint=eastwest;fontSize=12;whiteSpace=wrap;html=1;" parent="akXxFOU8DNpJ8hJ18WZi-25" vertex="1">
          <mxGeometry y="56" width="160" height="54" as="geometry" />
        </mxCell>
        <mxCell id="akXxFOU8DNpJ8hJ18WZi-30" value="Client" style="swimlane;fontStyle=0;childLayout=stackLayout;horizontal=1;startSize=26;horizontalStack=0;resizeParent=1;resizeParentMax=0;resizeLast=0;collapsible=1;marginBottom=0;align=center;fontSize=14;" parent="1" vertex="1">
          <mxGeometry x="-230" y="550" width="160" height="86" as="geometry" />
        </mxCell>
        <mxCell id="akXxFOU8DNpJ8hJ18WZi-31" value="client_number" style="text;strokeColor=none;fillColor=none;spacingLeft=4;spacingRight=4;overflow=hidden;rotatable=0;points=[[0,0.5],[1,0.5]];portConstraint=eastwest;fontSize=12;whiteSpace=wrap;html=1;" parent="akXxFOU8DNpJ8hJ18WZi-30" vertex="1">
          <mxGeometry y="26" width="160" height="30" as="geometry" />
        </mxCell>
        <mxCell id="akXxFOU8DNpJ8hJ18WZi-32" value="address" style="text;strokeColor=none;fillColor=none;spacingLeft=4;spacingRight=4;overflow=hidden;rotatable=0;points=[[0,0.5],[1,0.5]];portConstraint=eastwest;fontSize=12;whiteSpace=wrap;html=1;" parent="akXxFOU8DNpJ8hJ18WZi-30" vertex="1">
          <mxGeometry y="56" width="160" height="30" as="geometry" />
        </mxCell>
        <mxCell id="akXxFOU8DNpJ8hJ18WZi-35" value="" style="edgeStyle=entityRelationEdgeStyle;fontSize=12;html=1;endArrow=ERoneToMany;rounded=0;entryX=-0.012;entryY=0.173;entryDx=0;entryDy=0;exitX=1.019;exitY=0.233;exitDx=0;exitDy=0;exitPerimeter=0;entryPerimeter=0;" parent="1" source="akXxFOU8DNpJ8hJ18WZi-31" target="akXxFOU8DNpJ8hJ18WZi-17" edge="1">
          <mxGeometry width="100" height="100" relative="1" as="geometry">
            <mxPoint x="-100" y="750" as="sourcePoint" />
            <mxPoint y="650" as="targetPoint" />
            <Array as="points">
              <mxPoint x="50" y="560" />
            </Array>
          </mxGeometry>
        </mxCell>
        <mxCell id="akXxFOU8DNpJ8hJ18WZi-36" value="" style="shape=flexArrow;endArrow=classic;html=1;rounded=0;exitX=0;exitY=0.5;exitDx=0;exitDy=0;" parent="1" source="akXxFOU8DNpJ8hJ18WZi-32" edge="1">
          <mxGeometry width="50" height="50" relative="1" as="geometry">
            <mxPoint x="-240" y="624" as="sourcePoint" />
            <mxPoint x="-330" y="734" as="targetPoint" />
            <Array as="points">
              <mxPoint x="-330" y="620" />
            </Array>
          </mxGeometry>
        </mxCell>
        <mxCell id="akXxFOU8DNpJ8hJ18WZi-37" value="Business" style="swimlane;fontStyle=0;childLayout=stackLayout;horizontal=1;startSize=26;horizontalStack=0;resizeParent=1;resizeParentMax=0;resizeLast=0;collapsible=1;marginBottom=0;align=center;fontSize=14;" parent="1" vertex="1">
          <mxGeometry x="-410" y="734" width="160" height="56" as="geometry" />
        </mxCell>
        <mxCell id="akXxFOU8DNpJ8hJ18WZi-38" value="business_name" style="text;strokeColor=none;fillColor=none;spacingLeft=4;spacingRight=4;overflow=hidden;rotatable=0;points=[[0,0.5],[1,0.5]];portConstraint=eastwest;fontSize=12;whiteSpace=wrap;html=1;" parent="akXxFOU8DNpJ8hJ18WZi-37" vertex="1">
          <mxGeometry y="26" width="160" height="30" as="geometry" />
        </mxCell>
        <mxCell id="akXxFOU8DNpJ8hJ18WZi-41" value="Person" style="swimlane;fontStyle=0;childLayout=stackLayout;horizontal=1;startSize=26;horizontalStack=0;resizeParent=1;resizeParentMax=0;resizeLast=0;collapsible=1;marginBottom=0;align=center;fontSize=14;" parent="1" vertex="1">
          <mxGeometry x="-60" y="734" width="160" height="56" as="geometry" />
        </mxCell>
        <mxCell id="akXxFOU8DNpJ8hJ18WZi-42" value="name" style="text;strokeColor=none;fillColor=none;spacingLeft=4;spacingRight=4;overflow=hidden;rotatable=0;points=[[0,0.5],[1,0.5]];portConstraint=eastwest;fontSize=12;whiteSpace=wrap;html=1;" parent="akXxFOU8DNpJ8hJ18WZi-41" vertex="1">
          <mxGeometry y="26" width="160" height="30" as="geometry" />
        </mxCell>
        <mxCell id="akXxFOU8DNpJ8hJ18WZi-45" value="" style="shape=flexArrow;endArrow=classic;html=1;rounded=0;exitX=1;exitY=0.5;exitDx=0;exitDy=0;entryX=0.344;entryY=0;entryDx=0;entryDy=0;entryPerimeter=0;" parent="1" source="akXxFOU8DNpJ8hJ18WZi-32" target="akXxFOU8DNpJ8hJ18WZi-41" edge="1">
          <mxGeometry width="50" height="50" relative="1" as="geometry">
            <mxPoint x="-10" y="714" as="sourcePoint" />
            <mxPoint x="40" y="664" as="targetPoint" />
            <Array as="points">
              <mxPoint x="-5" y="621" />
            </Array>
          </mxGeometry>
        </mxCell>
        <mxCell id="HXT0rlTHmQGawke6wT0S-1" value="" style="shape=flexArrow;endArrow=classic;html=1;rounded=0;exitX=0.5;exitY=0;exitDx=0;exitDy=0;" parent="1" edge="1">
          <mxGeometry width="50" height="50" relative="1" as="geometry">
            <mxPoint x="454.5" y="170" as="sourcePoint" />
            <mxPoint x="454.5" y="20" as="targetPoint" />
          </mxGeometry>
        </mxCell>
        <mxCell id="HXT0rlTHmQGawke6wT0S-2" value="Tourist" style="swimlane;fontStyle=0;childLayout=stackLayout;horizontal=1;startSize=26;horizontalStack=0;resizeParent=1;resizeParentMax=0;resizeLast=0;collapsible=1;marginBottom=0;align=center;fontSize=14;" parent="1" vertex="1">
          <mxGeometry x="375" y="-36" width="160" height="56" as="geometry" />
        </mxCell>
        <mxCell id="HXT0rlTHmQGawke6wT0S-6" value="" style="shape=flexArrow;endArrow=classic;html=1;rounded=0;" parent="1" edge="1">
          <mxGeometry width="50" height="50" relative="1" as="geometry">
            <mxPoint x="445" y="100" as="sourcePoint" />
            <mxPoint x="215" y="30" as="targetPoint" />
            <Array as="points">
              <mxPoint x="216" y="100" />
            </Array>
          </mxGeometry>
        </mxCell>
        <mxCell id="HXT0rlTHmQGawke6wT0S-7" value="Heavyweight" style="swimlane;fontStyle=0;childLayout=stackLayout;horizontal=1;startSize=30;horizontalStack=0;resizeParent=1;resizeParentMax=0;resizeLast=0;collapsible=1;marginBottom=0;whiteSpace=wrap;html=1;" parent="1" vertex="1">
          <mxGeometry x="155" y="-36" width="140" height="60" as="geometry" />
        </mxCell>
        <mxCell id="HXT0rlTHmQGawke6wT0S-11" value="Super Heavyweight" style="swimlane;fontStyle=0;childLayout=stackLayout;horizontal=1;startSize=30;horizontalStack=0;resizeParent=1;resizeParentMax=0;resizeLast=0;collapsible=1;marginBottom=0;whiteSpace=wrap;html=1;" parent="1" vertex="1">
          <mxGeometry x="615" y="-40" width="140" height="60" as="geometry" />
        </mxCell>
        <mxCell id="HXT0rlTHmQGawke6wT0S-15" value="" style="shape=flexArrow;endArrow=classic;html=1;rounded=0;entryX=0.421;entryY=1.067;entryDx=0;entryDy=0;entryPerimeter=0;" parent="1" edge="1">
          <mxGeometry width="50" height="50" relative="1" as="geometry">
            <mxPoint x="465" y="100" as="sourcePoint" />
            <mxPoint x="683.94" y="22.00999999999999" as="targetPoint" />
            <Array as="points">
              <mxPoint x="685" y="100" />
            </Array>
          </mxGeometry>
        </mxCell>
        <mxCell id="HXT0rlTHmQGawke6wT0S-26" value="Line Order" style="swimlane;fontStyle=0;childLayout=stackLayout;horizontal=1;startSize=26;horizontalStack=0;resizeParent=1;resizeParentMax=0;resizeLast=0;collapsible=1;marginBottom=0;align=center;fontSize=14;" parent="1" vertex="1">
          <mxGeometry x="150" y="880" width="160" height="86" as="geometry" />
        </mxCell>
        <mxCell id="HXT0rlTHmQGawke6wT0S-27" value="mission_id" style="text;strokeColor=none;fillColor=none;spacingLeft=4;spacingRight=4;overflow=hidden;rotatable=0;points=[[0,0.5],[1,0.5]];portConstraint=eastwest;fontSize=12;whiteSpace=wrap;html=1;" parent="HXT0rlTHmQGawke6wT0S-26" vertex="1">
          <mxGeometry y="26" width="160" height="30" as="geometry" />
        </mxCell>
        <mxCell id="HXT0rlTHmQGawke6wT0S-28" value="invoice_id" style="text;strokeColor=none;fillColor=none;spacingLeft=4;spacingRight=4;overflow=hidden;rotatable=0;points=[[0,0.5],[1,0.5]];portConstraint=eastwest;fontSize=12;whiteSpace=wrap;html=1;" parent="HXT0rlTHmQGawke6wT0S-26" vertex="1">
          <mxGeometry y="56" width="160" height="30" as="geometry" />
        </mxCell>
        <mxCell id="HXT0rlTHmQGawke6wT0S-30" value="Invoice" style="swimlane;fontStyle=0;childLayout=stackLayout;horizontal=1;startSize=26;horizontalStack=0;resizeParent=1;resizeParentMax=0;resizeLast=0;collapsible=1;marginBottom=0;align=center;fontSize=14;" parent="1" vertex="1">
          <mxGeometry x="541" y="880" width="160" height="150" as="geometry" />
        </mxCell>
        <mxCell id="HXT0rlTHmQGawke6wT0S-31" value="invoice_id" style="text;strokeColor=none;fillColor=none;spacingLeft=4;spacingRight=4;overflow=hidden;rotatable=0;points=[[0,0.5],[1,0.5]];portConstraint=eastwest;fontSize=12;whiteSpace=wrap;html=1;" parent="HXT0rlTHmQGawke6wT0S-30" vertex="1">
          <mxGeometry y="26" width="160" height="30" as="geometry" />
        </mxCell>
        <mxCell id="dKVeqmf3rWd-lL4ULNfH-33" value="tax_id" style="text;strokeColor=none;fillColor=none;spacingLeft=4;spacingRight=4;overflow=hidden;rotatable=0;points=[[0,0.5],[1,0.5]];portConstraint=eastwest;fontSize=12;whiteSpace=wrap;html=1;" vertex="1" parent="HXT0rlTHmQGawke6wT0S-30">
          <mxGeometry y="56" width="160" height="30" as="geometry" />
        </mxCell>
        <mxCell id="HXT0rlTHmQGawke6wT0S-32" value="payment_method" style="text;strokeColor=none;fillColor=none;spacingLeft=4;spacingRight=4;overflow=hidden;rotatable=0;points=[[0,0.5],[1,0.5]];portConstraint=eastwest;fontSize=12;whiteSpace=wrap;html=1;" parent="HXT0rlTHmQGawke6wT0S-30" vertex="1">
          <mxGeometry y="86" width="160" height="30" as="geometry" />
        </mxCell>
        <mxCell id="HXT0rlTHmQGawke6wT0S-33" value="&lt;div&gt;is_paid&lt;/div&gt;" style="text;strokeColor=none;fillColor=none;spacingLeft=4;spacingRight=4;overflow=hidden;rotatable=0;points=[[0,0.5],[1,0.5]];portConstraint=eastwest;fontSize=12;whiteSpace=wrap;html=1;" parent="HXT0rlTHmQGawke6wT0S-30" vertex="1">
          <mxGeometry y="116" width="160" height="34" as="geometry" />
        </mxCell>
        <mxCell id="HXT0rlTHmQGawke6wT0S-34" value="" style="fontSize=12;html=1;endArrow=ERoneToMany;rounded=0;exitX=0.5;exitY=1;exitDx=0;exitDy=0;exitPerimeter=0;entryX=0.5;entryY=0;entryDx=0;entryDy=0;" parent="1" source="akXxFOU8DNpJ8hJ18WZi-17" target="HXT0rlTHmQGawke6wT0S-26" edge="1">
          <mxGeometry width="100" height="100" relative="1" as="geometry">
            <mxPoint x="211" y="750" as="sourcePoint" />
            <mxPoint x="230" y="870" as="targetPoint" />
          </mxGeometry>
        </mxCell>
        <mxCell id="HXT0rlTHmQGawke6wT0S-35" value="" style="fontSize=12;html=1;endArrow=ERoneToMany;rounded=0;exitX=0;exitY=0.5;exitDx=0;exitDy=0;entryX=1;entryY=0.5;entryDx=0;entryDy=0;" parent="1" source="HXT0rlTHmQGawke6wT0S-31" target="HXT0rlTHmQGawke6wT0S-27" edge="1">
          <mxGeometry width="100" height="100" relative="1" as="geometry">
            <mxPoint x="180" y="1170" as="sourcePoint" />
            <mxPoint x="280" y="1070" as="targetPoint" />
          </mxGeometry>
        </mxCell>
        <mxCell id="HXT0rlTHmQGawke6wT0S-40" value="Reservation" style="swimlane;fontStyle=0;childLayout=stackLayout;horizontal=1;startSize=26;horizontalStack=0;resizeParent=1;resizeParentMax=0;resizeLast=0;collapsible=1;marginBottom=0;align=center;fontSize=14;" parent="1" vertex="1">
          <mxGeometry x="-520" y="400" width="160" height="170" as="geometry" />
        </mxCell>
        <mxCell id="HXT0rlTHmQGawke6wT0S-41" value="client_id" style="text;strokeColor=none;fillColor=none;spacingLeft=4;spacingRight=4;overflow=hidden;rotatable=0;points=[[0,0.5],[1,0.5]];portConstraint=eastwest;fontSize=12;whiteSpace=wrap;html=1;" parent="HXT0rlTHmQGawke6wT0S-40" vertex="1">
          <mxGeometry y="26" width="160" height="30" as="geometry" />
        </mxCell>
        <mxCell id="HXT0rlTHmQGawke6wT0S-42" value="vehicle_type" style="text;strokeColor=none;fillColor=none;spacingLeft=4;spacingRight=4;overflow=hidden;rotatable=0;points=[[0,0.5],[1,0.5]];portConstraint=eastwest;fontSize=12;whiteSpace=wrap;html=1;" parent="HXT0rlTHmQGawke6wT0S-40" vertex="1">
          <mxGeometry y="56" width="160" height="30" as="geometry" />
        </mxCell>
        <mxCell id="HXT0rlTHmQGawke6wT0S-43" value="&lt;div&gt;location&lt;/div&gt;&lt;div&gt;&lt;br&gt;&lt;/div&gt;&lt;div&gt;appointment_start&lt;/div&gt;&lt;div&gt;&lt;br&gt;&lt;/div&gt;&lt;div&gt;appointment_end&lt;br&gt;&lt;/div&gt;&lt;div&gt;&lt;br&gt;&lt;/div&gt;&lt;div&gt;&lt;br&gt;&lt;/div&gt;" style="text;strokeColor=none;fillColor=none;spacingLeft=4;spacingRight=4;overflow=hidden;rotatable=0;points=[[0,0.5],[1,0.5]];portConstraint=eastwest;fontSize=12;whiteSpace=wrap;html=1;" parent="HXT0rlTHmQGawke6wT0S-40" vertex="1">
          <mxGeometry y="86" width="160" height="84" as="geometry" />
        </mxCell>
        <mxCell id="HXT0rlTHmQGawke6wT0S-44" value="Concerns" style="text;html=1;strokeColor=none;fillColor=none;align=center;verticalAlign=middle;whiteSpace=wrap;rounded=0;" parent="1" vertex="1">
          <mxGeometry x="615" y="60" width="60" height="30" as="geometry" />
        </mxCell>
        <mxCell id="HXT0rlTHmQGawke6wT0S-45" value="Concerns" style="text;html=1;strokeColor=none;fillColor=none;align=center;verticalAlign=middle;whiteSpace=wrap;rounded=0;" parent="1" vertex="1">
          <mxGeometry x="375" y="40" width="60" height="30" as="geometry" />
        </mxCell>
        <mxCell id="HXT0rlTHmQGawke6wT0S-46" value="Concerns" style="text;html=1;strokeColor=none;fillColor=none;align=center;verticalAlign=middle;whiteSpace=wrap;rounded=0;" parent="1" vertex="1">
          <mxGeometry x="140" y="40" width="60" height="30" as="geometry" />
        </mxCell>
        <mxCell id="HXT0rlTHmQGawke6wT0S-47" value="Concerns" style="text;html=1;strokeColor=none;fillColor=none;align=center;verticalAlign=middle;whiteSpace=wrap;rounded=0;" parent="1" vertex="1">
          <mxGeometry x="-310" y="690" width="60" height="30" as="geometry" />
        </mxCell>
        <mxCell id="HXT0rlTHmQGawke6wT0S-48" value="Concerns" style="text;html=1;strokeColor=none;fillColor=none;align=center;verticalAlign=middle;whiteSpace=wrap;rounded=0;" parent="1" vertex="1">
          <mxGeometry x="10" y="690" width="60" height="30" as="geometry" />
        </mxCell>
        <mxCell id="9CHubEAWElx0CJi55Ytn-6" value="Tax" style="swimlane;fontStyle=0;childLayout=stackLayout;horizontal=1;startSize=26;horizontalStack=0;resizeParent=1;resizeParentMax=0;resizeLast=0;collapsible=1;marginBottom=0;align=center;fontSize=14;" parent="1" vertex="1">
          <mxGeometry x="900" y="908" width="160" height="116" as="geometry" />
        </mxCell>
        <mxCell id="9CHubEAWElx0CJi55Ytn-7" value="tax_id&lt;span style=&quot;white-space: pre;&quot;&gt;&#x9;&lt;/span&gt;" style="text;strokeColor=none;fillColor=none;spacingLeft=4;spacingRight=4;overflow=hidden;rotatable=0;points=[[0,0.5],[1,0.5]];portConstraint=eastwest;fontSize=12;whiteSpace=wrap;html=1;" parent="9CHubEAWElx0CJi55Ytn-6" vertex="1">
          <mxGeometry y="26" width="160" height="30" as="geometry" />
        </mxCell>
        <mxCell id="9CHubEAWElx0CJi55Ytn-8" value="federal_taxes" style="text;strokeColor=none;fillColor=none;spacingLeft=4;spacingRight=4;overflow=hidden;rotatable=0;points=[[0,0.5],[1,0.5]];portConstraint=eastwest;fontSize=12;whiteSpace=wrap;html=1;" parent="9CHubEAWElx0CJi55Ytn-6" vertex="1">
          <mxGeometry y="56" width="160" height="30" as="geometry" />
        </mxCell>
        <mxCell id="9CHubEAWElx0CJi55Ytn-9" value="provincial_taxes" style="text;strokeColor=none;fillColor=none;spacingLeft=4;spacingRight=4;overflow=hidden;rotatable=0;points=[[0,0.5],[1,0.5]];portConstraint=eastwest;fontSize=12;whiteSpace=wrap;html=1;" parent="9CHubEAWElx0CJi55Ytn-6" vertex="1">
          <mxGeometry y="86" width="160" height="30" as="geometry" />
        </mxCell>
        <mxCell id="9CHubEAWElx0CJi55Ytn-10" value="" style="fontSize=12;html=1;endArrow=ERoneToMany;rounded=0;entryX=1;entryY=0.5;entryDx=0;entryDy=0;exitX=0;exitY=0.5;exitDx=0;exitDy=0;" parent="1" source="9CHubEAWElx0CJi55Ytn-7" target="dKVeqmf3rWd-lL4ULNfH-33" edge="1">
          <mxGeometry width="100" height="100" relative="1" as="geometry">
            <mxPoint x="810" y="1010" as="sourcePoint" />
            <mxPoint x="680" y="850" as="targetPoint" />
          </mxGeometry>
        </mxCell>
        <mxCell id="9CHubEAWElx0CJi55Ytn-11" value="" style="fontSize=12;html=1;endArrow=ERoneToMany;rounded=0;exitX=0;exitY=0.5;exitDx=0;exitDy=0;entryX=1;entryY=0.5;entryDx=0;entryDy=0;" parent="1" source="akXxFOU8DNpJ8hJ18WZi-31" target="HXT0rlTHmQGawke6wT0S-41" edge="1">
          <mxGeometry width="100" height="100" relative="1" as="geometry">
            <mxPoint x="-130" y="500" as="sourcePoint" />
            <mxPoint x="-274" y="500" as="targetPoint" />
            <Array as="points">
              <mxPoint x="-320" y="590" />
              <mxPoint x="-320" y="440" />
            </Array>
          </mxGeometry>
        </mxCell>
        <mxCell id="dKVeqmf3rWd-lL4ULNfH-1" value="1" style="text;html=1;strokeColor=none;fillColor=none;align=center;verticalAlign=middle;whiteSpace=wrap;rounded=0;" vertex="1" parent="1">
          <mxGeometry x="460" y="440" width="60" height="30" as="geometry" />
        </mxCell>
        <mxCell id="dKVeqmf3rWd-lL4ULNfH-2" value="N" style="text;html=1;strokeColor=none;fillColor=none;align=center;verticalAlign=middle;whiteSpace=wrap;rounded=0;" vertex="1" parent="1">
          <mxGeometry x="310" y="440" width="60" height="30" as="geometry" />
        </mxCell>
        <mxCell id="dKVeqmf3rWd-lL4ULNfH-3" value="&lt;font style=&quot;font-size: 18px;&quot;&gt;Has&lt;/font&gt;" style="text;html=1;strokeColor=#666666;fillColor=#f5f5f5;align=center;verticalAlign=middle;whiteSpace=wrap;rounded=0;fontColor=#333333;" vertex="1" parent="1">
          <mxGeometry x="370" y="460" width="100" height="30" as="geometry" />
        </mxCell>
        <mxCell id="dKVeqmf3rWd-lL4ULNfH-5" value="" style="endArrow=classic;html=1;rounded=0;" edge="1" parent="1">
          <mxGeometry width="50" height="50" relative="1" as="geometry">
            <mxPoint x="375" y="450" as="sourcePoint" />
            <mxPoint x="470" y="450" as="targetPoint" />
          </mxGeometry>
        </mxCell>
        <mxCell id="dKVeqmf3rWd-lL4ULNfH-9" value="" style="fontSize=12;html=1;endArrow=ERoneToMany;rounded=0;entryX=1.006;entryY=0.233;entryDx=0;entryDy=0;entryPerimeter=0;exitX=0.5;exitY=1.019;exitDx=0;exitDy=0;exitPerimeter=0;" edge="1" parent="1" source="dKVeqmf3rWd-lL4ULNfH-17" target="akXxFOU8DNpJ8hJ18WZi-16">
          <mxGeometry width="100" height="100" relative="1" as="geometry">
            <mxPoint x="460" y="310" as="sourcePoint" />
            <mxPoint x="326" y="439" as="targetPoint" />
            <Array as="points">
              <mxPoint x="460" y="433" />
            </Array>
          </mxGeometry>
        </mxCell>
        <mxCell id="dKVeqmf3rWd-lL4ULNfH-14" value="Vehicle" style="swimlane;fontStyle=0;childLayout=stackLayout;horizontal=1;startSize=26;horizontalStack=0;resizeParent=1;resizeParentMax=0;resizeLast=0;collapsible=1;marginBottom=0;align=center;fontSize=14;" vertex="1" parent="1">
          <mxGeometry x="380" y="170" width="160" height="140" as="geometry" />
        </mxCell>
        <mxCell id="dKVeqmf3rWd-lL4ULNfH-15" value="vehicle_id" style="text;strokeColor=none;fillColor=none;spacingLeft=4;spacingRight=4;overflow=hidden;rotatable=0;points=[[0,0.5],[1,0.5]];portConstraint=eastwest;fontSize=12;whiteSpace=wrap;html=1;" vertex="1" parent="dKVeqmf3rWd-lL4ULNfH-14">
          <mxGeometry y="26" width="160" height="30" as="geometry" />
        </mxCell>
        <mxCell id="dKVeqmf3rWd-lL4ULNfH-16" value="brand_name" style="text;strokeColor=none;fillColor=none;spacingLeft=4;spacingRight=4;overflow=hidden;rotatable=0;points=[[0,0.5],[1,0.5]];portConstraint=eastwest;fontSize=12;whiteSpace=wrap;html=1;" vertex="1" parent="dKVeqmf3rWd-lL4ULNfH-14">
          <mxGeometry y="56" width="160" height="30" as="geometry" />
        </mxCell>
        <mxCell id="dKVeqmf3rWd-lL4ULNfH-17" value="&lt;div&gt;rental_hour_price&lt;/div&gt;&lt;div&gt;&lt;br&gt;&lt;/div&gt;&lt;div&gt;kilometer_price&lt;br&gt;&lt;/div&gt;&lt;div&gt;&lt;br&gt;&lt;/div&gt;&lt;div&gt;vehicle_type&lt;br&gt;&lt;/div&gt;" style="text;strokeColor=none;fillColor=none;spacingLeft=4;spacingRight=4;overflow=hidden;rotatable=0;points=[[0,0.5],[1,0.5]];portConstraint=eastwest;fontSize=12;whiteSpace=wrap;html=1;" vertex="1" parent="dKVeqmf3rWd-lL4ULNfH-14">
          <mxGeometry y="86" width="160" height="54" as="geometry" />
        </mxCell>
        <mxCell id="dKVeqmf3rWd-lL4ULNfH-19" value="&lt;font style=&quot;font-size: 18px;&quot;&gt;Is assigned&lt;/font&gt;" style="text;html=1;strokeColor=#666666;fillColor=#f5f5f5;align=center;verticalAlign=middle;whiteSpace=wrap;rounded=0;fontColor=#333333;" vertex="1" parent="1">
          <mxGeometry x="411" y="360" width="100" height="30" as="geometry" />
        </mxCell>
        <mxCell id="dKVeqmf3rWd-lL4ULNfH-20" value="N" style="text;html=1;strokeColor=none;fillColor=none;align=center;verticalAlign=middle;whiteSpace=wrap;rounded=0;" vertex="1" parent="1">
          <mxGeometry x="310" y="390" width="60" height="40" as="geometry" />
        </mxCell>
        <mxCell id="dKVeqmf3rWd-lL4ULNfH-21" value="1" style="text;html=1;strokeColor=none;fillColor=none;align=center;verticalAlign=middle;whiteSpace=wrap;rounded=0;" vertex="1" parent="1">
          <mxGeometry x="400" y="310" width="60" height="30" as="geometry" />
        </mxCell>
        <mxCell id="dKVeqmf3rWd-lL4ULNfH-22" value="" style="endArrow=classic;html=1;rounded=0;" edge="1" parent="1">
          <mxGeometry width="50" height="50" relative="1" as="geometry">
            <mxPoint x="520" y="400" as="sourcePoint" />
            <mxPoint x="520" y="330" as="targetPoint" />
          </mxGeometry>
        </mxCell>
        <mxCell id="dKVeqmf3rWd-lL4ULNfH-23" value="1" style="text;html=1;strokeColor=none;fillColor=none;align=center;verticalAlign=middle;whiteSpace=wrap;rounded=0;" vertex="1" parent="1">
          <mxGeometry x="235" y="710" width="60" height="30" as="geometry" />
        </mxCell>
        <mxCell id="dKVeqmf3rWd-lL4ULNfH-24" value="N" style="text;html=1;strokeColor=none;fillColor=none;align=center;verticalAlign=middle;whiteSpace=wrap;rounded=0;" vertex="1" parent="1">
          <mxGeometry x="235" y="850" width="60" height="30" as="geometry" />
        </mxCell>
        <mxCell id="dKVeqmf3rWd-lL4ULNfH-25" value="&lt;font style=&quot;font-size: 18px;&quot;&gt;Appears in&lt;/font&gt;" style="text;html=1;strokeColor=#666666;fillColor=#f5f5f5;align=center;verticalAlign=middle;whiteSpace=wrap;rounded=0;fontColor=#333333;" vertex="1" parent="1">
          <mxGeometry x="180" y="770" width="100" height="30" as="geometry" />
        </mxCell>
        <mxCell id="dKVeqmf3rWd-lL4ULNfH-28" value="N" style="text;html=1;strokeColor=none;fillColor=none;align=center;verticalAlign=middle;whiteSpace=wrap;rounded=0;" vertex="1" parent="1">
          <mxGeometry x="310" y="883" width="60" height="30" as="geometry" />
        </mxCell>
        <mxCell id="dKVeqmf3rWd-lL4ULNfH-30" value="1" style="text;html=1;strokeColor=none;fillColor=none;align=center;verticalAlign=middle;whiteSpace=wrap;rounded=0;" vertex="1" parent="1">
          <mxGeometry x="475" y="890" width="60" height="30" as="geometry" />
        </mxCell>
        <mxCell id="dKVeqmf3rWd-lL4ULNfH-32" value="&lt;font style=&quot;font-size: 18px;&quot;&gt;Includes&lt;br&gt;&lt;/font&gt;" style="text;html=1;strokeColor=#666666;fillColor=#f5f5f5;align=center;verticalAlign=middle;whiteSpace=wrap;rounded=0;fontColor=#333333;" vertex="1" parent="1">
          <mxGeometry x="374" y="908" width="100" height="30" as="geometry" />
        </mxCell>
        <mxCell id="dKVeqmf3rWd-lL4ULNfH-34" value="N" style="text;html=1;strokeColor=none;fillColor=none;align=center;verticalAlign=middle;whiteSpace=wrap;rounded=0;" vertex="1" parent="1">
          <mxGeometry x="701" y="920" width="60" height="30" as="geometry" />
        </mxCell>
        <mxCell id="dKVeqmf3rWd-lL4ULNfH-40" value="1" style="text;html=1;strokeColor=none;fillColor=none;align=center;verticalAlign=middle;whiteSpace=wrap;rounded=0;" vertex="1" parent="1">
          <mxGeometry x="840" y="920" width="60" height="30" as="geometry" />
        </mxCell>
        <mxCell id="dKVeqmf3rWd-lL4ULNfH-42" value="&lt;font style=&quot;font-size: 18px;&quot;&gt;Has&lt;br&gt;&lt;/font&gt;" style="text;html=1;strokeColor=#666666;fillColor=#f5f5f5;align=center;verticalAlign=middle;whiteSpace=wrap;rounded=0;fontColor=#333333;" vertex="1" parent="1">
          <mxGeometry x="750" y="936" width="100" height="30" as="geometry" />
        </mxCell>
        <mxCell id="dKVeqmf3rWd-lL4ULNfH-44" value="" style="endArrow=classic;html=1;rounded=0;" edge="1" parent="1">
          <mxGeometry width="50" height="50" relative="1" as="geometry">
            <mxPoint x="300" y="750" as="sourcePoint" />
            <mxPoint x="300" y="820" as="targetPoint" />
          </mxGeometry>
        </mxCell>
        <mxCell id="dKVeqmf3rWd-lL4ULNfH-45" value="" style="endArrow=classic;html=1;rounded=0;" edge="1" parent="1">
          <mxGeometry width="50" height="50" relative="1" as="geometry">
            <mxPoint x="463.75" y="890" as="sourcePoint" />
            <mxPoint x="384.25" y="890" as="targetPoint" />
          </mxGeometry>
        </mxCell>
        <mxCell id="dKVeqmf3rWd-lL4ULNfH-46" value="" style="endArrow=classic;html=1;rounded=0;" edge="1" parent="1">
          <mxGeometry width="50" height="50" relative="1" as="geometry">
            <mxPoint x="755" y="916" as="sourcePoint" />
            <mxPoint x="846" y="916" as="targetPoint" />
          </mxGeometry>
        </mxCell>
      </root>
    </mxGraphModel>
  </diagram>
</mxfile>
